<svg width="40" height="40" viewBox="0 0 40 40" fill="none" xmlns="http://www.w3.org/2000/svg">
<rect width="40" height="40" rx="5" fill="#EFF4FC"/>
<rect x="26" y="21" width="6" height="6" rx="3" fill="#1877F2"/>
<path d="M17.5486 26.7758C16.6933 26.1401 16.5015 24.9216 17.1202 24.054L22.4565 16.5709C23.0751 15.7034 24.27 15.5153 25.1252 16.1509V16.1509C25.9805 16.7865 26.1723 18.0051 25.5536 18.8727L20.2173 26.3557C19.5987 27.2233 18.4038 27.4114 17.5486 26.7758V26.7758Z" fill="#1877F2"/>
<path d="M9.76029 26.7928C8.90505 26.1572 8.71327 24.9387 9.33195 24.0711L19.6721 9.57098C20.2908 8.70341 21.4856 8.51536 22.3409 9.15097V9.15097C23.1961 9.78659 23.3879 11.0052 22.7692 11.8727L12.4291 26.3728C11.8104 27.2404 10.6155 27.4285 9.76029 26.7928V26.7928Z" fill="#1877F2"/>
</svg>
